<svg xmlns="http://www.w3.org/2000/svg" viewBox="0 0 24 24">
  <path fill="#000" d="M4.25 4.5h5.6c1.12 0 2.14.43 2.9 1.13.76-.7 1.78-1.13 2.9-1.13h4.1c.41 0 .75.34.75.75v13.5c0 .41-.34.75-.75.75h-4.1c-1.47 0-2.78.83-3.42 2.16a.75.75 0 0 1-1.35 0A3.8 3.8 0 0 0 7.45 19.5h-3.2a.75.75 0 0 1-.75-.75V5.25c0-.41.34-.75.75-.75Zm1.25 13h1.95c1.28 0 2.49.48 3.42 1.3V7.95A2.88 2.88 0 0 0 9.85 6.5H5.5v11Zm8.13 1.3a5.22 5.22 0 0 1 3.42-1.3h1.95v-11h-3.35c-.78 0-1.5.32-2.02.85V18.8Z"/>
  <path fill="#000" d="M6.75 8.25h2.5v1.4h-2.5v-1.4Zm0 3h2.5v1.4h-2.5v-1.4Zm8.25-3h2.25v1.4H15v-1.4Zm0 3h2.25v1.4H15v-1.4Z"/>
</svg>
